# xmcd
#
# Track frame offsets: 
#        182
#        27082
#        51372
#        75357
#        99835
#        119610
#        141672
#        162260
#        180580
#
# Disc length: 2695 seconds
#
# Revision: 1
# Processed by: cddbd v1.5.2PL0 Copyright (c) Steve Scherf et al.
# Submitted via: ExactAudioCopy v1.0b3
#
DISCID=700a8509
DTITLE=Lorenzo - Love On My Mind
DYEAR=1995
DGENRE=R&B
TTITLE0=Love On My Mind
TTITLE1=You Ain't Had No Lovin
TTITLE2=If It's Alright With You (Feat. Keith Sweat)
TTITLE3=Shining Star
TTITLE4=Don't Wanna Share
TTITLE5=Bout To Lose My Mind
TTITLE6=Just Wanna Touch Ya
TTITLE7=Wanna Do Ya
TTITLE8=Betcha He Don't
EXTD=
EXTT0=
EXTT1=
EXTT2=
EXTT3=
EXTT4=
EXTT5=
EXTT6=
EXTT7=
EXTT8=
PLAYORDER=
